<svg width="75" height="81" viewBox="0 0 75 81" fill="none" xmlns="http://www.w3.org/2000/svg">
    <path d="M51.3281 60.2066C48.0316 62.2216 44.3901 63.4916 40.625 63.9394V77.625H34.375V63.9394C28.0348 63.1719 22.1243 60.1001 17.6131 55.2279C13.1018 50.3558 10.2576 43.9724 9.5469 37.125H15.8438C16.331 40.768 17.5994 44.2378 19.5479 47.2577C21.4964 50.2776 24.0712 52.7642 27.067 54.5193C30.0628 56.2744 33.3967 57.2494 36.8032 57.3667C40.2096 57.484 43.5943 56.7402 46.6875 55.1948L41.8406 49.9635C39.5131 50.6904 37.061 50.8228 34.6779 50.3502C32.2949 49.8776 30.0462 48.8129 28.1097 47.2403C26.1732 45.6677 24.6018 43.6303 23.5198 41.289C22.4377 38.9477 21.8746 36.3668 21.875 33.75V28.3973L4.35315 9.47703L8.77502 4.70141L70.6469 71.5264L66.225 76.2986L51.3281 60.2066ZM28.2281 35.2586L36.1031 43.7636C34.1215 43.4404 32.2878 42.4403 30.8706 40.9098C29.4535 39.3793 28.5275 37.3988 28.2281 35.2586ZM60.5469 51.165L56.0375 46.2983C57.6281 43.5645 58.7125 40.4595 59.1531 37.125H65.4531C64.9373 42.1762 63.2498 47.0053 60.5469 51.165ZM51.4531 41.3472L46.6156 36.1227C46.7844 35.3599 46.875 34.5702 46.875 33.75V20.25C46.8772 17.8697 46.1028 15.5646 44.6878 13.7395C43.2727 11.9145 41.3076 10.6863 39.1374 10.2706C36.9672 9.85483 34.7308 10.2782 32.8209 11.4662C30.911 12.6543 29.4498 14.5311 28.6938 16.767L24.0188 11.7147C25.7535 8.51723 28.4145 6.02543 31.591 4.62397C34.7676 3.2225 38.2829 2.98931 41.5944 3.96039C44.9058 4.93147 47.8292 7.05282 49.9132 9.99693C51.9972 12.941 53.1259 16.5442 53.125 20.25V33.75C53.1287 36.3888 52.557 38.9914 51.4563 41.3472H51.4531Z" fill="#E36B6B" />
</svg>
    